<svg width="34" height="22" viewBox="0 0 34 22" fill="none" xmlns="http://www.w3.org/2000/svg">
<rect x="0.5" y="0.5" width="33" height="21" rx="3.5" stroke="#CCCCCC"/>
<path d="M8.98 15.504C8.892 14.984 8.66 14.424 8.284 13.824C7.908 13.216 7.372 12.652 6.676 12.132C5.988 11.612 5.3 11.28 4.612 11.136V10.632C5.292 10.472 5.944 10.176 6.568 9.744C7.2 9.304 7.728 8.776 8.152 8.16C8.584 7.528 8.86 6.904 8.98 6.288H9.484C9.556 6.688 9.7 7.1 9.916 7.524C10.132 7.94 10.408 8.34 10.744 8.724C11.088 9.1 11.472 9.44 11.896 9.744C12.528 10.192 13.172 10.488 13.828 10.632V11.136C13.388 11.224 12.932 11.404 12.46 11.676C11.996 11.948 11.564 12.272 11.164 12.648C10.764 13.016 10.436 13.404 10.18 13.812C9.804 14.412 9.572 14.976 9.484 15.504H8.98ZM22.3391 7.60547L19.7903 15H18.2493L21.4602 6.46875H22.4446L22.3391 7.60547ZM24.472 15L21.9173 7.60547L21.8059 6.46875H22.7962L26.0188 15H24.472ZM24.3489 11.8359V13.002H19.7083V11.8359H24.3489ZM28.9042 6.46875V15H27.4335V6.46875H28.9042Z" fill="#6F6F6F"/>
</svg>
