<svg width="18" height="18" viewBox="0 0 18 18" fill="none" xmlns="http://www.w3.org/2000/svg">
<g clip-path="url(#clip0_1415_24945)">
<path d="M16.4996 8.99968C16.4995 4.85769 13.1417 1.49968 8.99963 1.49968C4.85776 1.49986 1.49981 4.8578 1.49963 8.99968C1.49963 13.1417 4.85765 16.4995 8.99963 16.4997C13.1418 16.4997 16.4996 13.1418 16.4996 8.99968ZM9.00842 12.3337C9.4686 12.3337 9.84143 12.7065 9.84143 13.1667C9.84143 13.6269 9.4686 13.9996 9.00842 13.9997H8.99963C8.53955 13.9995 8.16663 13.6268 8.16663 13.1667C8.16663 12.7065 8.53955 12.3338 8.99963 12.3337H9.00842ZM7.24475 4.45573C7.92333 4.05704 8.72098 3.91156 9.4967 4.0446C10.2726 4.17768 10.9761 4.58105 11.483 5.18327C11.9898 5.78526 12.2672 6.5468 12.2662 7.33366L12.2555 7.56706C12.1493 8.71263 11.2783 9.47989 10.6451 9.90202C10.2825 10.1438 9.92563 10.3213 9.66272 10.4382C9.5301 10.4971 9.41804 10.5422 9.33752 10.5729C9.29729 10.5882 9.26463 10.6006 9.24084 10.6091L9.20276 10.6217C9.20152 10.6222 9.19978 10.6224 9.19885 10.6227L9.19788 10.6237H9.1969C8.76047 10.7692 8.28895 10.5336 8.14319 10.0973C7.99776 9.66106 8.23262 9.18859 8.66858 9.04265C8.6707 9.04192 8.67588 9.04101 8.68225 9.03874C8.69504 9.03419 8.71583 9.02595 8.74377 9.0153C8.79988 8.99393 8.88352 8.96078 8.98499 8.9157C9.19068 8.82428 9.45934 8.68995 9.72131 8.5153C10.2958 8.13231 10.6001 7.7245 10.6002 7.33366V7.33171C10.6007 6.93837 10.4619 6.55749 10.2086 6.25652C9.95523 5.95551 9.60322 5.75379 9.21545 5.68718C8.82752 5.62064 8.42784 5.69283 8.0885 5.89226C7.74918 6.09169 7.49157 6.40574 7.36096 6.77702C7.20806 7.21088 6.73247 7.43849 6.29846 7.28581C5.86434 7.13306 5.63598 6.65745 5.7887 6.22331C6.04993 5.48076 6.56611 4.85458 7.24475 4.45573ZM18.1666 8.99968C18.1666 14.0623 14.0622 18.1667 8.99963 18.1667C3.93717 18.1665 -0.166382 14.0622 -0.166382 8.99968C-0.166206 3.93733 3.93728 -0.16616 8.99963 -0.166336C14.0621 -0.166336 18.1665 3.93722 18.1666 8.99968Z" fill="#666666"/>
</g>
<defs>
<clipPath id="clip0_1415_24945">
<rect width="18" height="18" fill="white"/>
</clipPath>
</defs>
</svg>
