<svg width="18" height="18" viewBox="0 0 18 18" fill="none" xmlns="http://www.w3.org/2000/svg">
<path d="M8.83333 9.49998C9.29357 9.49998 9.66667 9.12689 9.66667 8.66665C9.66667 8.20641 9.29357 7.83332 8.83333 7.83332C8.3731 7.83332 8 8.20641 8 8.66665C8 9.12689 8.3731 9.49998 8.83333 9.49998Z" stroke="#666666" stroke-width="1.66667" stroke-linecap="round" stroke-linejoin="round"/>
<path d="M8.83333 3.66665C9.29357 3.66665 9.66667 3.29356 9.66667 2.83332C9.66667 2.37308 9.29357 1.99998 8.83333 1.99998C8.3731 1.99998 8 2.37308 8 2.83332C8 3.29356 8.3731 3.66665 8.83333 3.66665Z" stroke="#666666" stroke-width="1.66667" stroke-linecap="round" stroke-linejoin="round"/>
<path d="M8.83333 15.3333C9.29357 15.3333 9.66667 14.9602 9.66667 14.5C9.66667 14.0397 9.29357 13.6667 8.83333 13.6667C8.3731 13.6667 8 14.0397 8 14.5C8 14.9602 8.3731 15.3333 8.83333 15.3333Z" stroke="#666666" stroke-width="1.66667" stroke-linecap="round" stroke-linejoin="round"/>
</svg>
