<svg width="18" height="18" viewBox="0 0 18 18" fill="none" xmlns="http://www.w3.org/2000/svg">
<path d="M10.0004 1.66992H8.47106V5.63477L8.46618 5.78711C8.44402 6.14268 8.34368 6.49001 8.17224 6.80371L6.20642 10.4004H12.265L10.2992 6.80371C10.1033 6.44534 10.0002 6.04316 10.0004 5.63477V1.66992ZM3.76403 14.8672V14.8682C3.70044 14.9845 3.66802 15.1154 3.67028 15.248C3.67258 15.3808 3.70997 15.5108 3.77771 15.625C3.84544 15.7392 3.94163 15.8337 4.057 15.8994C4.1724 15.9651 4.30312 16 4.43591 16H14.0355C14.1683 16 14.299 15.9651 14.4144 15.8994C14.5298 15.8337 14.626 15.7392 14.6937 15.625C14.7615 15.5108 14.7988 15.3808 14.8011 15.248C14.8034 15.1155 14.771 14.9845 14.7074 14.8682V14.8672L13.1781 12.0703H5.29333L3.76403 14.8672ZM11.6703 5.63574C11.6703 5.76392 11.7026 5.89045 11.764 6.00293L14.3988 10.8232C14.4038 10.832 14.4088 10.8407 14.4134 10.8496L16.1722 14.0664L16.2435 14.207C16.3991 14.5412 16.4775 14.9074 16.4711 15.2773C16.4637 15.6999 16.3458 16.113 16.1302 16.4766C15.9146 16.8402 15.6079 17.1414 15.2406 17.3506C14.9193 17.5335 14.5614 17.6412 14.1937 17.665L14.0355 17.6699H4.43591C4.01316 17.67 3.5972 17.5598 3.22985 17.3506C2.86271 17.1414 2.55669 16.84 2.34118 16.4766C2.12565 16.113 2.00772 15.6999 2.00036 15.2773C1.99306 14.8547 2.09634 14.4372 2.29919 14.0664L4.057 10.8496C4.06165 10.8407 4.06669 10.832 4.07165 10.8232L6.70739 6.00293C6.76887 5.89045 6.80113 5.76392 6.80114 5.63574V1.66992H6.43591C5.97475 1.66992 5.60095 1.29612 5.60095 0.834961C5.60095 0.373803 5.97475 0 6.43591 0H12.0355C12.4967 0 12.8705 0.373803 12.8705 0.834961C12.8705 1.29612 12.4967 1.66992 12.0355 1.66992H11.6703V5.63574Z" fill="#666666"/>
</svg>
