<svg width="19" height="19" viewBox="0 0 19 19" fill="none" xmlns="http://www.w3.org/2000/svg">
<path d="M16.666 9.16602C16.6658 5.02403 13.308 1.66602 9.16602 1.66602C5.02414 1.66619 1.66619 5.02414 1.66602 9.16602C1.66602 13.308 5.02403 16.6658 9.16602 16.666C13.3082 16.666 16.666 13.3082 16.666 9.16602ZM8.33301 12.5V9.16602C8.33318 8.70604 8.70604 8.33318 9.16602 8.33301C9.62614 8.33301 9.99982 8.70593 10 9.16602V12.5C9.99982 12.9601 9.62614 13.333 9.16602 13.333C8.70604 13.3328 8.33318 12.96 8.33301 12.5ZM9.1748 5C9.63498 5.00007 10.0078 5.37281 10.0078 5.83301C10.0078 6.2932 9.63498 6.66594 9.1748 6.66602H9.16602C8.70593 6.66584 8.33301 6.29314 8.33301 5.83301C8.33301 5.37288 8.70593 5.00018 9.16602 5H9.1748ZM18.333 9.16602C18.333 14.2286 14.2286 18.333 9.16602 18.333C4.10355 18.3328 0 14.2285 0 9.16602C0.000175754 4.10366 4.10366 0.000175751 9.16602 0C14.2285 0 18.3328 4.10355 18.333 9.16602Z" fill="#666666"/>
</svg>
