<svg width="20" height="26" viewBox="0 0 20 26" fill="none" xmlns="http://www.w3.org/2000/svg">
<g clip-path="url(#clip0_5470_3161)">
<path d="M19.5909 10.3544C19.1687 7.67 18.6217 4.75091 16.261 3.13857C14.8303 2.15597 13.3551 2.08338 11.7055 2.08338C10.5807 2.08338 6.61658 2.0361 4.87983 2.0361C3.14308 2.0361 2.07128 0.666883 2.07128 0C0.972145 1.3287 0.131119 2.79753 0.426846 4.57364C0.691803 6.17247 1.8012 7.1939 3.42513 7.39649C1.58411 9.96273 -0.0791374 12.919 0.00291377 16.0491C0.0541959 18.0227 0.512316 25.8514 9.4747 25.8514H11.1072C14.9345 25.8514 17.2525 23.0455 17.926 21.9666C19.9072 18.7757 20.2388 13.8374 19.6115 10.3713M18.2388 16.5877C17.5619 19.7262 15.2627 21.0583 10.1414 21.0583C-2.44494 21.0583 2.01487 11.0669 3.77385 9.00883C4.51231 8.09546 5.03026 7.34416 6.90718 7.34416H10.4781C15.4576 7.34416 16.4063 7.57714 17.6542 10.091C18.3294 11.4451 18.7191 14.3675 18.2388 16.5927" fill="white"/>
</g>
<defs>
<clipPath id="clip0_5470_3161">
<rect width="20" height="26" fill="white"/>
</clipPath>
</defs>
</svg>
