<svg width="18" height="18" viewBox="0 0 18 18" fill="none" xmlns="http://www.w3.org/2000/svg">
<path d="M4.33301 16V13.5C4.33301 13.279 4.24515 13.0674 4.08887 12.9111C3.93259 12.7549 3.72101 12.667 3.5 12.667H1C0.539763 12.667 0.166992 12.2932 0.166992 11.833C0.167168 11.3729 0.539871 11 1 11H3.5C4.16304 11 4.79874 11.2636 5.26758 11.7324C5.73642 12.2013 6 12.837 6 13.5V16C6 16.4601 5.62708 16.8328 5.16699 16.833C4.70675 16.833 4.33301 16.4602 4.33301 16ZM11 16V13.5C11 12.837 11.2636 12.2013 11.7324 11.7324C12.2013 11.2636 12.837 11 13.5 11H16C16.4601 11 16.8328 11.3729 16.833 11.833C16.833 12.2932 16.4602 12.667 16 12.667H13.5C13.279 12.667 13.0674 12.7549 12.9111 12.9111C12.7549 13.0674 12.667 13.279 12.667 13.5V16C12.667 16.4602 12.2932 16.833 11.833 16.833C11.3729 16.8328 11 16.4601 11 16ZM4.33301 3.5V1C4.33301 0.539763 4.70675 0.166992 5.16699 0.166992C5.62708 0.167168 6 0.539871 6 1V3.5C6 4.16304 5.73642 4.79874 5.26758 5.26758C4.79874 5.73642 4.16304 6 3.5 6H1C0.539871 6 0.167168 5.62708 0.166992 5.16699C0.166992 4.70675 0.539763 4.33301 1 4.33301H3.5C3.72101 4.33301 3.93259 4.24515 4.08887 4.08887C4.24515 3.93259 4.33301 3.72101 4.33301 3.5ZM11 3.5V1C11 0.539871 11.3729 0.167168 11.833 0.166992C12.2932 0.166992 12.667 0.539763 12.667 1V3.5C12.667 3.72101 12.7549 3.93259 12.9111 4.08887C13.0674 4.24515 13.279 4.33301 13.5 4.33301H16C16.4602 4.33301 16.833 4.70675 16.833 5.16699C16.8328 5.62708 16.4601 6 16 6H13.5C12.837 6 12.2013 5.73642 11.7324 5.26758C11.2636 4.79874 11 4.16304 11 3.5Z" fill="#666666"/>
</svg>
