<svg width="18" height="18" viewBox="0 0 18 18" fill="none" xmlns="http://www.w3.org/2000/svg">
<path d="M15.167 2.66699C15.167 2.20675 14.7932 1.83301 14.333 1.83301H11.833V15.167H14.333C14.7932 15.167 15.167 14.7932 15.167 14.333V2.66699ZM4.57715 5.41113C4.90259 5.0857 5.43042 5.0857 5.75586 5.41113L8.25586 7.91113C8.58108 8.23653 8.58108 8.76347 8.25586 9.08887L5.75586 11.5889C5.43042 11.9143 4.90259 11.9143 4.57715 11.5889C4.25215 11.2635 4.25215 10.7365 4.57715 10.4111L6.48828 8.5L4.57715 6.58887C4.25215 6.26351 4.25215 5.73649 4.57715 5.41113ZM1.83301 14.333C1.83301 14.7932 2.20675 15.167 2.66699 15.167H10.167V1.83301H2.66699C2.20675 1.83301 1.83301 2.20675 1.83301 2.66699V14.333ZM16.833 14.333C16.833 15.7137 15.7137 16.833 14.333 16.833H2.66699C1.28628 16.833 0.166992 15.7137 0.166992 14.333V2.66699C0.166992 1.28628 1.28628 0.166992 2.66699 0.166992H14.333C15.7137 0.166992 16.833 1.28628 16.833 2.66699V14.333Z" fill="#666666"/>
</svg>
