<svg width="18" height="18" viewBox="0 0 18 18" fill="none" xmlns="http://www.w3.org/2000/svg">
<path d="M9 1.41504C10.5001 1.41504 11.9665 1.85994 13.2139 2.69336C14.4612 3.52681 15.4337 4.71168 16.0078 6.09766C16.5818 7.48345 16.732 9.00835 16.4395 10.4795C16.1468 11.9508 15.4241 13.3025 14.3633 14.3633C13.3025 15.4241 11.9508 16.1468 10.4795 16.4395C9.00835 16.732 7.48345 16.5818 6.09766 16.0078C4.71168 15.4337 3.52681 14.4612 2.69336 13.2139C1.85994 11.9665 1.41504 10.5001 1.41504 9C1.41504 8.53884 1.78884 8.16504 2.25 8.16504C2.71116 8.16504 3.08496 8.53884 3.08496 9C3.08496 10.1699 3.43208 11.3134 4.08203 12.2861C4.73197 13.2588 5.65554 14.0172 6.73633 14.4648C7.81715 14.9125 9.0069 15.03 10.1543 14.8018C11.3016 14.5735 12.3554 14.0098 13.1826 13.1826C14.0098 12.3554 14.5735 11.3016 14.8018 10.1543C15.03 9.0069 14.9125 7.81715 14.4648 6.73633C14.0172 5.65554 13.2588 4.73197 12.2861 4.08203C11.3137 3.43226 10.1705 3.08515 9.00098 3.08496C7.33022 3.0918 5.72667 3.74399 4.52539 4.90527L4.26562 5.16504H6C6.46116 5.16504 6.83496 5.53884 6.83496 6C6.83496 6.46116 6.46116 6.83496 6 6.83496H2.25C1.78884 6.83496 1.41504 6.46116 1.41504 6V2.25C1.41504 1.78884 1.78884 1.41504 2.25 1.41504C2.71116 1.41504 3.08496 1.78884 3.08496 2.25V3.9834L3.35449 3.71484L3.36426 3.7041C4.8759 2.2428 6.8946 1.42295 8.99707 1.41504H9Z" fill="#666666"/>
</svg>
