<svg width="18" height="18" viewBox="0 0 18 18" fill="none" xmlns="http://www.w3.org/2000/svg">
<path d="M13.4112 3.41113C13.7366 3.08569 14.2635 3.08569 14.5889 3.41113C14.9144 3.73657 14.9144 4.26343 14.5889 4.58887L10.1778 9L14.5889 13.4111C14.9144 13.7366 14.9144 14.2634 14.5889 14.5889C14.2635 14.9143 13.7366 14.9143 13.4112 14.5889L9.00006 10.1777L4.58893 14.5889C4.26349 14.9143 3.73663 14.9143 3.41119 14.5889C3.08576 14.2634 3.08576 13.7366 3.41119 13.4111L7.82232 9L3.41119 4.58887C3.08576 4.26343 3.08576 3.73657 3.41119 3.41113C3.73663 3.08569 4.26349 3.08569 4.58893 3.41113L9.00006 7.82226L13.4112 3.41113Z" fill="#666666"/>
</svg>
